<svg viewBox="0 0 24 24" xmlns:inkscape="http://www.inkscape.org/namespaces/inkscape" xmlns="http://www.w3.org/2000/svg" xmlns:svg="http://www.w3.org/2000/svg"><path d="M 11.666016,2.2539062 C 7.6222225,2.3833777 3.8547883,4.8860655 2.3066406,8.8925781 0.24055667,14.239479 2.9081604,20.247829 8.2617188,22.316406 c 0.1938557,0.07049 0.4149413,0.06807 0.6074218,0.0039 l 0.013672,-0.0059 0.011719,-0.0039 c 0.2240202,-0.09334 0.3918003,-0.282823 0.4648438,-0.501953 l 2.273437,-5.785156 0.002,-0.0039 c 0.159668,-0.443522 -0.06638,-0.930412 -0.501954,-1.09375 -0.650482,-0.242846 -1.1643211,-0.739776 -1.4218745,-1.375 -0.2322506,-0.593529 -0.2166672,-1.279723 0.042969,-1.894531 0.5528648,-1.218031 2.0039328,-1.7748872 3.2421878,-1.220703 1.23877,0.554415 1.792467,2.001975 1.238281,3.240234 -0.26041,0.581582 -0.755284,1.065702 -1.365234,1.289063 l -0.0098,0.0039 -0.0098,0.0059 c -0.41289,0.179518 -0.624881,0.657892 -0.46289,1.089844 l 2.214843,5.785156 c 0.07731,0.231917 0.264868,0.412608 0.47461,0.5 l 0.06836,0.0293 h 0.265625 0.238282 l 0.06445,-0.02539 c 2.753211,-1.038948 4.922184,-3.239759 5.96875,-5.996094 0.996827,-2.564755 0.926091,-5.419628 -0.205079,-7.9414064 -1.120771,-2.5113594 -3.186787,-4.4725224 -5.75,-5.46875 C 14.391267,2.4312972 13.014231,2.21074 11.666016,2.2539062 Z m 0.324218,1.7128907 0.0059,0.00195 h 0.0078 c 1.120309,-0.00958 2.231328,0.2014083 3.275391,0.6132812 4.425052,1.7719363 6.571938,6.7833838 4.808594,11.2109378 -0.782877,2.006682 -2.31717,3.584705 -4.226563,4.554687 l -1.636719,-4.269531 c 0.571743,-0.376096 1.10105,-0.821031 1.427735,-1.427734 C 16.74326,12.63385 15.983449,10.116362 13.966797,9.0253906 11.951269,7.9460364 9.4380494,8.6953623 8.3476562,10.710938 c -1.033057,1.90959 -0.3655838,4.22128 1.4140626,5.398437 L 8.1269531,20.345703 C 5.0443687,18.893072 3.06356,15.796716 3.1464844,12.369141 3.2709821,7.6095009 7.231111,3.8423128 11.990234,3.9667969 Z" id="path2905" inkscape:path-effect="#path-effect4002" inkscape:original-d="M15.41,22C15.35,22 15.28,22 15.22,22C15.1,21.95 15,21.85 14.96,21.73L12.74,15.93C12.65,15.69 12.77,15.42 13,15.32C13.71,15.06 14.28,14.5 14.58,13.83C15.22,12.4 14.58,10.73 13.15,10.09C11.72,9.45 10.05,10.09 9.41,11.5C9.11,12.21 9.09,13 9.36,13.69C9.66,14.43 10.25,15 11,15.28C11.24,15.37 11.37,15.64 11.28,15.89L9,21.69C8.96,21.81 8.87,21.91 8.75,21.96C8.63,22 8.5,22 8.39,21.96C3.24,19.97 0.67,14.18 2.66,9.03C4.65,3.88 10.44,1.31 15.59,3.3C18.06,4.26 20.05,6.15 21.13,8.57C22.22,11 22.29,13.75 21.33,16.22C20.32,18.88 18.23,21 15.58,22C15.5,22 15.47,22 15.41,22M12,3.59C7.03,3.46 2.9,7.39 2.77,12.36C2.68,16.08 4.88,19.47 8.32,20.9L10.21,16C8.38,15 7.69,12.72 8.68,10.89C9.67,9.06 11.96,8.38 13.79,9.36C15.62,10.35 16.31,12.64 15.32,14.47C14.97,15.12 14.44,15.65 13.79,16L15.68,20.93C17.86,19.95 19.57,18.16 20.44,15.93C22.28,11.31 20.04,6.08 15.42,4.23C14.33,3.8 13.17,3.58 12,3.59Z" /></svg>
