<?xml version="1.0" encoding="UTF-8"?>
<svg id="Vrstva_1" data-name="Vrstva 1" xmlns="http://www.w3.org/2000/svg" width="860.73" height="740.25" viewBox="0 0 860.73 740.25">
  <defs>
    <style>
      .cls-1 {
        fill: #fbb03b;
      }

      .cls-1, .cls-2, .cls-3, .cls-4, .cls-5, .cls-6, .cls-7, .cls-8, .cls-9 {
        stroke-width: 0px;
      }

      .cls-10 {
        stroke-linecap: round;
        stroke-width: 2px;
      }

      .cls-10, .cls-11, .cls-12, .cls-13, .cls-14, .cls-15 {
        stroke-miterlimit: 10;
      }

      .cls-10, .cls-11, .cls-12, .cls-16, .cls-15 {
        fill: none;
      }

      .cls-10, .cls-11, .cls-14, .cls-15 {
        stroke: #bb2136;
      }

      .cls-2 {
        fill: #c1272d;
      }

      .cls-11 {
        stroke-width: 4px;
      }

      .cls-12, .cls-16 {
        stroke: #781c34;
        stroke-width: 8px;
      }

      .cls-3 {
        fill: #1c0c19;
      }

      .cls-13 {
        stroke: #5a1b33;
      }

      .cls-13, .cls-7 {
        fill: #bb2136;
      }

      .cls-4 {
        fill: #f7931e;
      }

      .cls-14, .cls-8 {
        fill: #781c34;
      }

      .cls-5 {
        fill: #5a1b33;
      }

      .cls-16 {
        stroke-linejoin: round;
      }

      .cls-6 {
        fill: #9e1e35;
      }

      .cls-7 {
        opacity: .2;
      }

      .cls-9 {
        fill: #371831;
      }
    </style>
  </defs>
  <line class="cls-12" x1="671.71" y1="107.45" x2="717.57" y2="107.45"/>
  <path class="cls-7" d="M796.73,383.53c0,99.49-37.88,190.13-100.01,258.28-32.61-54.12-88.09-97.44-156.17-121.58,36.25-34.03,58.89-82.4,58.89-136.05,0-103.06-83.54-186.61-186.61-186.61s-186.61,83.55-186.61,186.61c0,54.46,23.33,103.47,60.55,137.58-44.04,16.26-82.63,40.61-112.93,70.72-1.33,1.32-2.65,2.65-3.95,4-1.28,1.32-2.55,2.65-3.79,4-12.87,13.88-24.04,28.86-33.26,44.75-64-68.53-103.17-160.54-103.17-261.7C29.67,171.71,201.38,0,413.2,0s383.53,171.71,383.53,383.53Z"/>
  <polyline class="cls-16" points="359.34 65.65 359.34 110.13 419.71 110.13"/>
  <path class="cls-8" d="M66.75,600.48h99.36c1.24-1.35,2.51-2.68,3.79-4,1.3-1.35,2.62-2.68,3.95-4h-19.1v-73.05c0-2.21-1.79-4-4-4s-4,1.79-4,4v73.04h-82"/>
  <polyline class="cls-16" points="565.32 106.46 621.96 106.46 621.96 187.63"/>
  <line class="cls-12" x1="509.83" y1="280.5" x2="563.48" y2="280.5"/>
  <polyline class="cls-16" points="296.68 310.77 268.61 310.77 268.61 243.81"/>
  <line class="cls-12" x1="205.32" y1="386.44" x2="275.03" y2="386.44"/>
  <polyline class="cls-16" points="543.69 384.18 641.45 384.18 641.45 456.14"/>
  <circle class="cls-3" cx="412.84" cy="384.18" r="147.21"/>
  <path class="cls-2" d="M301.74,179.56c.17-11.94-1.46-24.11-5.06-36.16-2.3-7.71-5.32-15.04-8.96-21.89,9.66-12.67,18.19-24.69,25.23-35.66-10.53-15.07-23.45-28.03-38.07-38.49-10.43,7.09-21.94,15.75-34.17,25.75-19.14-10.86-41.19-16.49-63.85-15.66-6.48-14.52-12.92-27.46-19.08-38.52-7.52,1.12-15.06,2.78-22.56,5.02-10.03,3-19.57,6.89-28.51,11.57,1.29,12.87,3.45,27.37,6.34,42.99-17.5,11.98-31.28,28.25-40.3,46.9-15.42-1.73-29.62-2.81-42.26-3.21-6.51,17.61-10,36.43-9.99,55.68,12.24,5.2,26.14,10.45,41.21,15.6.82,6.31,2.16,12.64,4.04,18.93,3.17,10.63,7.68,20.49,13.29,29.45-9.32,12.33-17.58,24.03-24.59,34.84,12.37,15.87,27.51,29.11,44.49,39.23,10.49-8.16,21.73-17.56,33.35-27.88,13.98,6.21,29.18,9.8,44.82,10.33,5.73,14.38,11.48,27.75,17.15,39.72,10.96-.91,21.99-2.96,32.96-6.23,8.57-2.56,16.76-5.77,24.54-9.56-1.46-12.88-3.61-27.08-6.42-42.33,14.27-8.95,26.27-20.69,35.49-34.24,15.7,2.2,30.45,3.81,43.75,4.73,8.62-17.04,14.25-35.65,16.38-54.93-11.52-5.27-24.69-10.65-39.22-15.98ZM250.72,178.43c0,39.33-31.89,71.22-71.23,71.22s-71.22-31.89-71.22-71.22,31.89-71.23,71.22-71.23,71.23,31.89,71.23,71.23Z"/>
  <path class="cls-8" d="M725.93,277.76c1.6-4.95,2.69-9.94,3.27-14.92,9.77-3.2,18.71-6.46,26.47-9.71-.07-11.86-2.19-23.49-6.12-34.41-8.15-.05-17.43.34-27.61,1.17-6.18-12.78-15.84-23.86-28.19-31.72,1.87-10.09,3.2-19.33,3.98-27.47-4.41-2.16-9.03-4.04-13.84-5.6-6.43-2.08-12.92-3.51-19.39-4.3-4.03,7.32-8.19,15.81-12.38,25.17-13.69-.04-26.98,3.56-38.61,10.16-7.56-6.57-14.71-12.34-21.28-17.19-9.92,6.97-18.67,15.7-25.71,25.93,4.59,7.25,10.06,15.13,16.18,23.39-1.88,3.66-3.48,7.51-4.79,11.55-2.21,6.81-3.43,13.7-3.73,20.52-9.47,3.14-18.15,6.33-25.84,9.51.76,12.96,3.96,25.55,9.27,37.15,8.57-.49,17.99-1.37,27.95-2.6,5.15,8.43,11.92,15.9,20.03,21.92-2.22,9.74-4.07,18.95-5.44,27.39,6.16,3.53,12.78,6.49,19.8,8.77,5.5,1.78,11.03,3.07,16.55,3.91,3.94-7.38,8.01-15.71,12.1-24.85,10.86.47,21.54-1.36,31.41-5.19,7.54,6.92,14.78,13.18,21.51,18.54,10.84-5.89,20.64-13.71,28.85-23.18-4.2-7.03-9.23-14.71-15-22.87,4.47-6.28,8.06-13.35,10.56-21.07ZM652,314.27c-33.5,0-60.67-27.17-60.67-60.68s27.17-60.68,60.67-60.68,60.68,27.17,60.68,60.68-27.17,60.68-60.68,60.68Z"/>
  <path class="cls-3" d="M691.83,740.25H139.75c0-91.44,66.96-170.14,163.1-205.31,30.84,22.54,68.85,35.85,109.98,35.85s80.73-13.86,111.91-37.27c98.27,34.43,167.09,114.03,167.09,206.73Z"/>
  <path class="cls-9" d="M568.1,117.71c1.03-7.65.92-15.52-.44-23.35,7.75-4.93,14.41-9.66,19.76-14.03-1.21-4.28-2.72-8.53-4.55-12.72-1.83-4.18-3.91-8.19-6.22-11.98-6.85.94-14.85,2.61-23.73,4.93-4.81-6.32-10.5-11.75-16.82-16.21,2-8.96,3.36-17.02,4.05-23.89-7.88-4.4-16.33-7.72-25.1-9.86-4.17,5.51-8.65,12.34-13.29,20.26-7.66-1.03-15.53-.92-23.35.44-4.93-7.75-9.66-14.41-14.03-19.76-4.28,1.21-8.53,2.73-12.72,4.55-4.18,1.83-8.19,3.91-11.99,6.22.95,6.85,2.61,14.85,4.94,23.73-6.32,4.81-11.75,10.5-16.21,16.82-8.97-2-17.02-3.36-23.89-4.05-4.4,7.88-7.72,16.33-9.86,25.1,5.51,4.17,12.34,8.65,20.26,13.29-1.03,7.66-.92,15.52.44,23.35-7.75,4.93-14.41,9.66-19.76,14.03,1.21,4.28,2.72,8.53,4.55,12.71,1.83,4.19,3.91,8.19,6.22,12,6.85-.95,14.85-2.61,23.73-4.94,4.81,6.32,10.5,11.76,16.81,16.21-1.99,8.97-3.35,17.02-4.04,23.89,7.88,4.4,16.33,7.72,25.09,9.86,4.18-5.51,8.65-12.34,13.29-20.27h.01c7.66,1.04,15.53.93,23.35-.42,4.93,7.74,9.66,14.4,14.03,19.75,4.28-1.21,8.53-2.72,12.71-4.55,4.19-1.83,8.2-3.91,11.99-6.22-.94-6.85-2.61-14.85-4.93-23.73,6.32-4.8,11.75-10.5,16.2-16.82h.01c8.96,1.99,17.02,3.36,23.89,4.05,4.4-7.88,7.72-16.33,9.86-25.09-5.51-4.18-12.34-8.65-20.26-13.3ZM491.5,159.64c-28.81,0-52.18-23.37-52.18-52.18s23.37-52.19,52.18-52.19,52.19,23.37,52.19,52.19-23.37,52.18-52.19,52.18Z"/>
  <path class="cls-9" d="M817.38,607.27c-3.66,12.64-9.23,24.82-16.71,36.07,8.67,12.99,15.79,24.94,21.12,35.43-4.83,5.83-10.11,11.41-15.84,16.68-5.72,5.26-11.71,10.06-17.92,14.39-10.01-6.18-21.33-14.28-33.56-24-10.6,5.85-21.81,10.1-33.3,12.78-1.44-5.32-3.09-10.57-4.94-15.75-.64-1.8-1.3-3.59-2-5.37-1.44-3.73-2.98-7.42-4.63-11.08-.61-1.37-1.24-2.74-1.88-4.1-.52-1.11-1.05-2.21-1.6-3.31-.06-.12-.12-.24-.18-.36-17.22-34.77-43.59-65.74-76.67-90.92-2.11-1.61-4.25-3.2-6.42-4.74-.08-.06-.15-.12-.23-.17-2.57-1.85-5.17-3.66-7.81-5.42-9.47-6.4-19.42-12.33-29.77-17.77-1.73-.91-3.48-1.8-5.23-2.68-4.58-2.31-9.24-4.51-13.97-6.62,3.64-11.35,8.85-22.31,15.63-32.5-8.67-12.99-15.79-24.94-21.12-35.43,4.83-5.83,10.11-11.4,15.83-16.67,5.73-5.27,11.72-10.07,17.93-14.39,10.01,6.18,21.33,14.27,33.56,23.99,11.83-6.53,24.44-11.08,37.33-13.68,3.07-15.33,6.48-28.8,10.13-39.98,15.29-1.44,30.73-.8,45.85,1.9,2.71,11.45,4.99,25.16,6.77,40.69,12.64,3.66,24.82,9.24,36.07,16.73,13-8.67,24.94-15.8,35.44-21.12,5.82,4.83,11.4,10.11,16.66,15.83,5.27,5.72,10.07,11.71,14.4,17.93-6.18,10.01-14.27,21.33-23.99,33.56,6.53,11.83,11.08,24.44,13.68,37.33,15.32,3.06,28.8,6.47,39.98,10.12,1.43,15.3.79,30.74-1.91,45.86-11.44,2.71-25.16,4.98-40.69,6.76h-.01Z"/>
  <path class="cls-6" d="M359.33,21.22c-14.19,0-25.7,11.51-25.7,25.71s11.51,25.7,25.7,25.7,25.71-11.5,25.71-25.7-11.51-25.71-25.71-25.71ZM359.33,58.85c-6.58,0-11.92-5.34-11.92-11.92s5.34-11.92,11.92-11.92,11.92,5.34,11.92,11.92-5.33,11.92-11.92,11.92Z"/>
  <path class="cls-8" d="M489.47,130.38h-8.15v-4.08l8.28-.05.03-1.93h-8.33v-4.86h8.44c0-2.42.09-4.62.09-6.82v-4.2c0-1.46-.85-2.82-2.2-3.37-3.53-1.45-6.43-3.63-8.46-7.01-4.1-6.82-2.54-15.16,3.89-20.39,5.85-4.76,13.93-4.41,19.72.85,8.73,7.93,6.53,21.52-4.35,26.18-1.99.85-2.55,1.84-2.53,3.86.1,9.14.04,18.29.08,27.43,0,1.8.11,3.6-2.03,4.33-1.99.68-3.85.04-4.51-1.76-.15-.4-.16-1-.16-1l-7.97-.04v-5.09h8.14s.04-2.05.04-2.05ZM492.51,85.55c-2.32.02-4.5,2.14-4.46,4.46.04,2.27,2.02,4.45,4.37,4.46,2.47,0,4.5-1.94,4.55-4.34.05-2.42-2.16-4.6-4.46-4.57Z"/>
  <g>
    <path class="cls-9" d="M184.68,190.35c-.55.59-1.24,1.01-2.02,1.62.82,3.53,1.64,7.09,2.5,10.81h-11.34c.52-2.35,1.03-4.69,1.55-7.03.06-.24.09-.49.17-.73.56-1.81.56-3.13-1.1-4.61-3.05-2.72-2.95-7.68-.19-10.8,2.78-3.16,7.4-3.22,10.14-.16,2.84,3.17,2.99,8.02.29,10.9Z"/>
    <path class="cls-9" d="M208.9,163.03c-.97-.58-1.26-1.2-1.25-2.22,5.63-35.12-47.03-46.15-56.02-11.75-1.33,4.16.9,10.18-1.48,13.73-14.6,7.99-8.12,29.33-9.23,42.89,1.33,19.26,23.35,16.14,38.12,16.1v.04c15.74.13,37.81,2.93,39.14-17.38-1.32-13.59,5.4-32.92-9.27-41.41ZM175.09,134.98c11.21-2.36,22.29,4.24,24.32,14.41.63,3.16.1,6.53.1,9.98h-40.03c-1.88-11.79,2.43-21.62,15.61-24.4ZM210.41,202.61c-.06,5.26-3.98,9.55-9.38,10.58-.89.17-1.83.21-2.74.21-6.21.02-12.42.01-18.63.01v.02c-6.26,0-12.54-.13-18.79.03-7.63.2-12.44-6.55-12.35-11.48.15-8.14,0-16.29.06-24.44.04-5.88,5.42-10.82,11.97-10.98,4.48-.1,8.96-.02,13.45-.02,7.76,0,15.53-.01,23.28,0,8.08,0,13.17,4.76,13.17,12.28,0,7.93.07,15.86-.04,23.79Z"/>
  </g>
  <path class="cls-4" d="M768.97,564.92c-.69-11.74-.52-23.34-.34-35.64.08-5.46.17-11.1.17-16.74v-3.52l-3.5-.44c-.48-.07-.9-.13-1.27-.19-.81-.12-1.57-.24-2.41-.25-24.88-.33-46.13-5.1-64.97-14.57-3.32-1.67-7.58-.62-10.5.32-4.27,1.37-8.55,2.9-12.68,4.37-7.5,2.68-15.25,5.45-22.97,7.26-6.91,1.61-14.1,2.15-21.71,2.72-3.4.26-6.92.52-10.45.89l-3.39.36-.19,3.4c-.02.42-.05.87-.08,1.34-.09,1.18-.19,2.52-.18,3.91.04,6.95.1,13.9.16,20.85.06,6.06.11,12.22.15,18.41,2.64,1.76,5.24,3.57,7.81,5.42.08.05.15.11.23.17-.05-8.09-.12-16.16-.19-24.07-.06-6.94-.12-13.88-.16-20.82,0-.44.01-.89.03-1.33,2.3-.21,4.61-.38,6.86-.55,7.58-.57,15.42-1.16,22.93-2.91,8.17-1.91,16.14-4.76,23.84-7.51,4.07-1.46,8.28-2.96,12.43-4.29,2.19-.7,3.41-.83,4-.83.33,0,.46.04.47.04,19.76,9.94,41.92,14.98,67.72,15.41-.02,4.39-.08,8.77-.15,13.04-.17,11.89-.35,24.19.35,36.22,1.77,30.22-9.28,55.31-33.76,76.68-6.75,5.89-13.95,11.5-21.1,16.94.55,1.1,1.08,2.2,1.6,3.31.64,1.36,1.27,2.73,1.88,4.1,7.7-5.84,15.51-11.89,22.88-18.32,26.11-22.79,38.38-50.78,36.49-83.18Z"/>
  <polygon class="cls-4" points="737.46 555.24 685.8 607 685.76 606.98 658.65 579.92 670.18 568.37 685.76 583.93 725.91 543.71 737.46 555.24"/>
  <circle class="cls-4" cx="64.03" cy="365.66" r="9.28"/>
  <circle class="cls-9" cx="35.4" cy="319.83" r="13.11"/>
  <circle class="cls-5" cx="355.56" cy="142.65" r="8.15"/>
  <circle class="cls-1" cx="676.35" cy="370.3" r="4.64"/>
  <circle class="cls-2" cx="769.16" cy="365.66" r="13.62"/>
  <circle class="cls-4" cx="641.45" cy="72.63" r="13.62"/>
  <path class="cls-6" d="M833.8,168.54s-.05-.04-.07-.07l-45.26-43.29c5.21-6.89,8.3-15.46,8.3-24.76,0-22.7-18.4-41.1-41.1-41.1s-41.1,18.4-41.1,41.1,18.4,41.1,41.1,41.1c8.02,0,15.51-2.3,21.83-6.28l45.49,43.51s.02.03.04.04c0,0,0,.01.01.01,1.35,1.48,3.29,2.4,5.46,2.4,4.11,0,7.44-3.33,7.44-7.44,0-2.04-.81-3.88-2.14-5.22ZM779.69,116.79c-2.84,4.16-6.73,7.54-11.29,9.76-3.84,1.88-8.16,2.93-12.73,2.93-16.05,0-29.06-13.01-29.06-29.06s13.01-29.07,29.06-29.07,29.06,13.02,29.06,29.07c0,6.07-1.86,11.71-5.04,16.37Z"/>
  <circle class="cls-3" cx="779.48" cy="285.78" r="10.32"/>
  <g>
    <path class="cls-5" d="M754.83,87.22c-2.26.73-4.47,1.67-6.78,2.21-1.97.46-4.04.48-6.16.7-.02.28-.05.61-.05.94.02,3.86.08,7.72.07,11.58,0,2.98.97,5.6,2.65,8.03,2.83,4.08,6.76,6.9,10.87,9.51.06.04.14.06.23.07v-33.21c-.28.02-.59.1-.84.18Z"/>
    <path class="cls-2" d="M762.84,115.01c4.55-3.97,6.99-8.87,6.62-15.07-.19-3.26-.03-6.55-.03-9.92-.28-.04-.44-.07-.61-.08-4.39-.06-8.62-.83-12.58-2.83-.16-.08-.36-.09-.57-.07v33.21c.25.02.57-.05.73-.18,2.17-1.66,4.38-3.27,6.44-5.06Z"/>
  </g>
  <path class="cls-5" d="M231.94,429.23c-4.2-.93-8.83-1.8-13.81-2.58-1.66-6.72-4.33-13.26-8.03-19.34,2.96-4.07,5.62-7.95,7.93-11.58-5.38-7.59-12.03-14.29-19.73-19.72-3.64,2.31-7.51,4.96-11.59,7.94-6.1-3.69-12.62-6.35-19.35-8.01-.79-4.97-1.66-9.58-2.6-13.78-9.49-1.63-18.89-1.56-27.9-.01-.94,4.21-1.8,8.83-2.58,13.81-6.73,1.66-13.26,4.33-19.34,8.03-4.07-2.96-7.95-5.62-11.58-7.93-7.59,5.38-14.29,12.03-19.72,19.73,2.31,3.64,4.96,7.51,7.94,11.59-3.69,6.09-6.35,12.62-8.01,19.35-4.97.79-9.59,1.65-13.78,2.59-1.64,9.49-1.57,18.89,0,27.9,4.21.94,8.83,1.8,13.81,2.59,1.67,6.72,4.33,13.26,8.03,19.33-2.96,4.07-5.62,7.96-7.93,11.59,5.38,7.59,12.03,14.29,19.73,19.72,3.64-2.31,7.51-4.96,11.59-7.95,6.09,3.7,12.62,6.36,19.35,8.01.79,4.97,1.66,9.59,2.6,13.79,9.49,1.64,18.89,1.57,27.89.01.94-4.21,1.8-8.84,2.58-13.83h.01c6.73-1.64,13.26-4.31,19.34-8.01,4.07,2.96,7.95,5.62,11.58,7.93,7.59-5.38,14.29-12.03,19.72-19.73-2.31-3.64-4.96-7.52-7.93-11.6,3.68-6.08,6.34-12.61,7.99-19.34h0c4.98-.8,9.6-1.66,13.79-2.6,1.63-9.49,1.56-18.89.01-27.9ZM183.83,443.23c0,18.21-14.76,32.97-32.97,32.97s-32.97-14.76-32.97-32.97,14.76-32.97,32.97-32.97,32.97,14.76,32.97,32.97Z"/>
  <g>
    <line class="cls-15" x1="679.13" y1="253.59" x2="704.13" y2="253.59"/>
    <path class="cls-14" d="M704.13,254.59h-25c-.55,0-1-.45-1-1s.45-1,1-1h25c.55,0,1,.45,1,1s-.45,1-1,1Z"/>
  </g>
  <g>
    <line class="cls-15" x1="652.01" y1="305.72" x2="652.01" y2="280.72"/>
    <path class="cls-14" d="M652.01,306.72c-.55,0-1-.45-1-1v-25c0-.55.45-1,1-1s1,.45,1,1v25c0,.55-.45,1-1,1Z"/>
  </g>
  <g>
    <line class="cls-15" x1="652.01" y1="226.46" x2="652.01" y2="201.46"/>
    <path class="cls-14" d="M652.01,227.46c-.55,0-1-.45-1-1v-25c0-.55.45-1,1-1s1,.45,1,1v25c0,.55-.45,1-1,1Z"/>
  </g>
  <g>
    <line class="cls-15" x1="599.87" y1="253.58" x2="624.87" y2="253.58"/>
    <path class="cls-14" d="M624.87,254.58h-25c-.55,0-1-.45-1-1s.45-1,1-1h25c.55,0,1,.45,1,1s-.45,1-1,1Z"/>
  </g>
  <path class="cls-10" d="M658.37,216.92c17.43,3.06,30.85,18.42,30.85,36.67"/>
  <path class="cls-10" d="M688.95,258.13c-2.28,18.58-18.23,32.69-36.95,32.69"/>
  <path class="cls-10" d="M652,207.8c23.02,0,42.64,17.36,45.44,40.21"/>
  <circle class="cls-9" cx="651.65" cy="247.54" r="8.53"/>
  <path class="cls-9" d="M667.82,268.17h-31.98c0-5.3,3.88-9.86,9.45-11.89,1.79,1.31,3.99,2.08,6.37,2.08s4.68-.8,6.48-2.16c5.69,1.99,9.68,6.61,9.68,11.98Z"/>
  <path class="cls-10" d="M697.44,253.76c0,23.02-17.36,42.64-40.21,45.44"/>
  <path class="cls-10" d="M615.33,258.13c2.28,18.58,18.23,32.69,36.95,32.69"/>
  <path class="cls-10" d="M646.23,298.97c-22.88-2.55-40.46-21.97-40.72-44.98"/>
  <path class="cls-10" d="M646.23,216.78c-17.81,2.73-31.63,18.28-31.63,36.8"/>
  <path class="cls-10" d="M651.83,207.79c-23.02,0-42.64,17.36-45.44,40.21"/>
  <g>
    <circle class="cls-11" cx="34.66" cy="607.41" r="32.66"/>
    <ellipse class="cls-11" cx="34.66" cy="607.41" rx="13.92" ry="32.66"/>
    <path class="cls-11" d="M59.71,628.38c-3.1-2.06-7-3.74-11.43-4.87-4.15-1.07-8.76-1.66-13.62-1.66s-9.46.59-13.61,1.66c-4.44,1.13-8.34,2.81-11.43,4.87"/>
    <path class="cls-11" d="M9.61,586.45c3.1,2.06,7,3.74,11.43,4.87,4.15,1.07,8.76,1.66,13.61,1.66s9.47-.59,13.62-1.66c4.44-1.14,8.34-2.81,11.43-4.87"/>
    <line class="cls-11" x1="2" y1="607.41" x2="67.32" y2="607.41"/>
  </g>
  <g>
    <path class="cls-13" d="M61.24,644.58c-.16.17-.37.3-.6.48.24,1.04.49,2.1.74,3.2h-3.36c.15-.7.31-1.39.46-2.08.02-.07.03-.15.05-.22.17-.53.16-.93-.33-1.36-.9-.8-.87-2.27-.06-3.2.82-.93,2.19-.95,3-.05.84.94.88,2.37.09,3.23Z"/>
    <path class="cls-13" d="M68.4,636.5c-.29-.17-.37-.36-.37-.66,1.67-10.39-13.92-13.65-16.57-3.48-.39,1.23.27,3.01-.44,4.06-4.32,2.36-2.4,8.68-2.73,12.69.39,5.7,6.91,4.77,11.28,4.76h0c4.66.05,11.18.88,11.58-5.13-.39-4.02,1.6-9.74-2.74-12.25ZM58.4,628.2c3.32-.7,6.59,1.25,7.2,4.26.19.93.03,1.93.03,2.95h-11.84c-.56-3.49.72-6.4,4.62-7.22ZM68.85,648.21c-.02,1.55-1.18,2.83-2.78,3.13-.26.05-.54.06-.81.06-1.84,0-3.67,0-5.51,0h0c-1.85,0-3.71-.03-5.56.01-2.26.06-3.68-1.94-3.65-3.4.05-2.41,0-4.82.02-7.23.01-1.74,1.6-3.2,3.54-3.25,1.32-.03,2.65,0,3.98,0,2.3,0,4.59,0,6.89,0,2.39,0,3.9,1.41,3.9,3.63,0,2.35.02,4.69-.01,7.04Z"/>
  </g>
</svg>