<?xml version="1.0" encoding="utf-8"?>
<!-- Generator: Adobe Illustrator 28.3.0, SVG Export Plug-In . SVG Version: 6.00 Build 0)  -->
<svg version="1.1" id="Vrstva_1" xmlns="http://www.w3.org/2000/svg" xmlns:xlink="http://www.w3.org/1999/xlink" x="0px" y="0px"
	 viewBox="0 0 894.3 740.2" style="enable-background:new 0 0 894.3 740.2;" xml:space="preserve">
<style type="text/css">
	.st0{fill:none;stroke:#781C34;stroke-width:8;stroke-miterlimit:10;}
	.st1{fill:#371831;}
	.st2{fill:none;stroke:#781C34;stroke-width:8;stroke-linejoin:round;stroke-miterlimit:10;}
	.st3{fill:#781C34;}
	.st4{fill:url(#SVGID_1_);stroke:url(#SVGID_00000067202518793331988430000007949133693445467266_);stroke-miterlimit:10;}
	.st5{fill:url(#SVGID_00000140016127520444330810000000567533900044886676_);}
	.st6{fill:#371831;stroke:url(#SVGID_00000085227816889001982340000003732287887982479005_);stroke-width:8;stroke-miterlimit:10;}
	
		.st7{fill:url(#SVGID_00000067209906565046067310000001330595674834599576_);stroke:url(#SVGID_00000183935203990883840460000007077559793212450452_);stroke-miterlimit:10;}
	.st8{fill:url(#SVGID_00000047028116240614452510000009463628629431783582_);}
	.st9{fill:url(#SVGID_00000067929880311899905670000007774792184121260933_);}
	.st10{fill:#9E1E35;}
	.st11{fill:#B81C34;}
	.st12{fill:#C11831;}
	.st13{fill:#F7931E;}
	.st14{fill:#FBB03B;}
	.st15{fill:#FF4C2B;}
	.st16{fill:#802136;}
	.st17{fill:#611C34;}
	.st18{fill:url(#SVGID_00000050627049479791052140000016314627843723083197_);}
	.st19{fill:none;stroke:#CE2136;stroke-miterlimit:10;}
	.st20{fill:#B81C34;stroke:#CE2136;stroke-miterlimit:10;}
	.st21{fill:none;stroke:#CE2136;stroke-width:2;stroke-linecap:round;stroke-miterlimit:10;}
	.st22{fill:none;stroke:#CE2136;stroke-width:2;stroke-miterlimit:10;}
	.st23{fill:none;stroke:#781C34;stroke-width:4;stroke-miterlimit:10;}
	.st24{fill:#F15A24;}
</style>
<line class="st0" x1="705.3" y1="107.5" x2="751.2" y2="107.5"/>
<path class="st1" d="M830.3,383.5c0,99.5-37.9,190.1-100,258.3c-32.6-54.1-88.1-97.4-156.2-121.6c36.2-34,58.9-82.4,58.9-136
	c0-103.1-83.5-186.6-186.6-186.6c-103.1,0-186.6,83.5-186.6,186.6c0,54.5,23.3,103.5,60.6,137.6c-44,16.3-82.6,40.6-112.9,70.7
	c-1.3,1.3-2.6,2.7-3.9,4c-1.3,1.3-2.6,2.7-3.8,4c-12.9,13.9-24,28.9-33.3,44.8c-64-68.5-103.2-160.5-103.2-261.7
	C63.3,171.7,235,0,446.8,0S830.3,171.7,830.3,383.5z"/>
<polyline class="st2" points="392.9,65.6 392.9,110.1 453.3,110.1 "/>
<path class="st3" d="M100.4,600.5l99.4,0c1.2-1.3,2.5-2.7,3.8-4c1.3-1.3,2.6-2.7,3.9-4h-19.1v-73c0-2.2-1.8-4-4-4s-4,1.8-4,4v73h-82
	"/>
<polyline class="st2" points="598.9,106.5 655.6,106.5 655.6,187.6 "/>
<line class="st0" x1="543.4" y1="280.5" x2="597.1" y2="280.5"/>
<polyline class="st2" points="330.3,310.8 302.2,310.8 302.2,243.8 "/>
<line class="st0" x1="238.9" y1="386.4" x2="308.6" y2="386.4"/>
<polyline class="st2" points="577.3,384.2 675.1,384.2 675.1,456.1 "/>
<linearGradient id="SVGID_1_" gradientUnits="userSpaceOnUse" x1="299.2357" y1="384.182" x2="593.6561" y2="384.182">
	<stop  offset="0" style="stop-color:#5A1B33"/>
	<stop  offset="1" style="stop-color:#BB2136"/>
</linearGradient>
<linearGradient id="SVGID_00000022548625316518175050000007522041644216167092_" gradientUnits="userSpaceOnUse" x1="298.7357" y1="384.182" x2="594.1561" y2="384.182">
	<stop  offset="0" style="stop-color:#5A1B33"/>
	<stop  offset="1" style="stop-color:#BB2136"/>
</linearGradient>
<circle style="fill:url(#SVGID_1_);stroke:url(#SVGID_00000022548625316518175050000007522041644216167092_);stroke-miterlimit:10;" cx="446.4" cy="384.2" r="147.2"/>
<linearGradient id="SVGID_00000170960065124664130010000014924588192164400563_" gradientUnits="userSpaceOnUse" x1="54.113" y1="178.515" x2="374.573" y2="178.515">
	<stop  offset="0" style="stop-color:#F7931E"/>
	<stop  offset="1" style="stop-color:#BB2136"/>
</linearGradient>
<path style="fill:url(#SVGID_00000170960065124664130010000014924588192164400563_);" d="M335.4,179.6c0.2-11.9-1.5-24.1-5.1-36.2
	c-2.3-7.7-5.3-15-9-21.9c9.7-12.7,18.2-24.7,25.2-35.7c-10.5-15.1-23.5-28-38.1-38.5c-10.4,7.1-21.9,15.8-34.2,25.8
	c-19.1-10.9-41.2-16.5-63.9-15.7C204,42.9,197.6,30,191.4,18.9c-7.5,1.1-15.1,2.8-22.6,5c-10,3-19.6,6.9-28.5,11.6
	c1.3,12.9,3.4,27.4,6.3,43c-17.5,12-31.3,28.2-40.3,46.9c-15.4-1.7-29.6-2.8-42.3-3.2c-6.5,17.6-10,36.4-10,55.7
	c12.2,5.2,26.1,10.5,41.2,15.6c0.8,6.3,2.2,12.6,4,18.9c3.2,10.6,7.7,20.5,13.3,29.5c-9.3,12.3-17.6,24-24.6,34.8
	c12.4,15.9,27.5,29.1,44.5,39.2c10.5-8.2,21.7-17.6,33.3-27.9c14,6.2,29.2,9.8,44.8,10.3c5.7,14.4,11.5,27.8,17.2,39.7
	c11-0.9,22-3,33-6.2c8.6-2.6,16.8-5.8,24.5-9.6c-1.5-12.9-3.6-27.1-6.4-42.3c14.3-9,26.3-20.7,35.5-34.2c15.7,2.2,30.4,3.8,43.8,4.7
	c8.6-17,14.2-35.6,16.4-54.9C363.1,190.3,349.9,184.9,335.4,179.6z M284.3,178.4c0,39.3-31.9,71.2-71.2,71.2
	c-39.3,0-71.2-31.9-71.2-71.2c0-39.3,31.9-71.2,71.2-71.2C252.4,107.2,284.3,139.1,284.3,178.4z"/>
<linearGradient id="SVGID_00000164472758797529865120000006703170804541812144_" gradientUnits="userSpaceOnUse" x1="577.7932" y1="253.631" x2="793.2987" y2="253.631">
	<stop  offset="0" style="stop-color:#F7931E"/>
	<stop  offset="1" style="stop-color:#F15A24"/>
</linearGradient>
<path style="fill:#371831;stroke:url(#SVGID_00000164472758797529865120000006703170804541812144_);stroke-width:8;stroke-miterlimit:10;" d="
	M759.5,277.8c1.6-5,2.7-9.9,3.3-14.9c9.8-3.2,18.7-6.5,26.5-9.7c-0.1-11.9-2.2-23.5-6.1-34.4c-8.2,0-17.4,0.3-27.6,1.2
	c-6.2-12.8-15.8-23.9-28.2-31.7c1.9-10.1,3.2-19.3,4-27.5c-4.4-2.2-9-4-13.8-5.6c-6.4-2.1-12.9-3.5-19.4-4.3
	c-4,7.3-8.2,15.8-12.4,25.2c-13.7,0-27,3.6-38.6,10.2c-7.6-6.6-14.7-12.3-21.3-17.2c-9.9,7-18.7,15.7-25.7,25.9
	c4.6,7.2,10.1,15.1,16.2,23.4c-1.9,3.7-3.5,7.5-4.8,11.5c-2.2,6.8-3.4,13.7-3.7,20.5c-9.5,3.1-18.2,6.3-25.8,9.5
	c0.8,13,4,25.6,9.3,37.2c8.6-0.5,18-1.4,28-2.6c5.2,8.4,11.9,15.9,20,21.9c-2.2,9.7-4.1,19-5.4,27.4c6.2,3.5,12.8,6.5,19.8,8.8
	c5.5,1.8,11,3.1,16.5,3.9c3.9-7.4,8-15.7,12.1-24.9c10.9,0.5,21.5-1.4,31.4-5.2c7.5,6.9,14.8,13.2,21.5,18.5
	c10.8-5.9,20.6-13.7,28.8-23.2c-4.2-7-9.2-14.7-15-22.9C753.5,292.5,757,285.5,759.5,277.8z"/>
<linearGradient id="SVGID_00000031914253532587094440000017328653021814105506_" gradientUnits="userSpaceOnUse" x1="173.363" y1="636.885" x2="725.443" y2="636.885">
	<stop  offset="0" style="stop-color:#5A1B33"/>
	<stop  offset="1" style="stop-color:#BB2136"/>
</linearGradient>
<linearGradient id="SVGID_00000175291342064701165620000008782790055380288687_" gradientUnits="userSpaceOnUse" x1="172.863" y1="636.8549" x2="725.943" y2="636.8549">
	<stop  offset="0" style="stop-color:#5A1B33"/>
	<stop  offset="1" style="stop-color:#BB2136"/>
</linearGradient>
<path style="fill:url(#SVGID_00000031914253532587094440000017328653021814105506_);stroke:url(#SVGID_00000175291342064701165620000008782790055380288687_);stroke-miterlimit:10;" d="
	M725.4,740.2H173.4c0-91.4,67-170.1,163.1-205.3c30.8,22.5,68.9,35.8,110,35.8c42,0,80.7-13.9,111.9-37.3
	C656.6,568,725.4,647.5,725.4,740.2z"/>
<linearGradient id="SVGID_00000165937746910003591490000003744213228869598637_" gradientUnits="userSpaceOnUse" x1="621.973" y1="107.455" x2="428.263" y2="107.455">
	<stop  offset="0" style="stop-color:#F15A24"/>
	<stop  offset="1" style="stop-color:#BB2136"/>
</linearGradient>
<path style="fill:url(#SVGID_00000165937746910003591490000003744213228869598637_);" d="M601.7,117.7c1-7.6,0.9-15.5-0.4-23.3
	c7.8-4.9,14.4-9.7,19.8-14c-1.2-4.3-2.7-8.5-4.5-12.7c-1.8-4.2-3.9-8.2-6.2-12c-6.8,0.9-14.8,2.6-23.7,4.9
	c-4.8-6.3-10.5-11.8-16.8-16.2c2-9,3.4-17,4-23.9c-7.9-4.4-16.3-7.7-25.1-9.9c-4.2,5.5-8.7,12.3-13.3,20.3c-7.7-1-15.5-0.9-23.4,0.4
	c-4.9-7.8-9.7-14.4-14-19.8c-4.3,1.2-8.5,2.7-12.7,4.5c-4.2,1.8-8.2,3.9-12,6.2c1,6.8,2.6,14.8,4.9,23.7
	c-6.3,4.8-11.8,10.5-16.2,16.8c-9-2-17-3.4-23.9-4c-4.4,7.9-7.7,16.3-9.9,25.1c5.5,4.2,12.3,8.7,20.3,13.3c-1,7.7-0.9,15.5,0.4,23.3
	c-7.8,4.9-14.4,9.7-19.8,14c1.2,4.3,2.7,8.5,4.6,12.7c1.8,4.2,3.9,8.2,6.2,12c6.9-1,14.9-2.6,23.7-4.9c4.8,6.3,10.5,11.8,16.8,16.2
	c-2,9-3.3,17-4,23.9c7.9,4.4,16.3,7.7,25.1,9.9c4.2-5.5,8.6-12.3,13.3-20.3h0c7.7,1,15.5,0.9,23.3-0.4c4.9,7.7,9.7,14.4,14,19.8
	c4.3-1.2,8.5-2.7,12.7-4.5c4.2-1.8,8.2-3.9,12-6.2c-0.9-6.8-2.6-14.8-4.9-23.7c6.3-4.8,11.8-10.5,16.2-16.8h0c9,2,17,3.4,23.9,4
	c4.4-7.9,7.7-16.3,9.9-25.1C616.5,126.8,609.6,122.4,601.7,117.7z M525.1,159.6c-28.8,0-52.2-23.4-52.2-52.2
	c0-28.8,23.4-52.2,52.2-52.2c28.8,0,52.2,23.4,52.2,52.2C577.3,136.3,553.9,159.6,525.1,159.6z"/>
<linearGradient id="SVGID_00000135665674093984927430000013742169696297772946_" gradientUnits="userSpaceOnUse" x1="593.963" y1="555.3807" x2="894.3443" y2="555.3807">
	<stop  offset="0" style="stop-color:#51172E"/>
	<stop  offset="1" style="stop-color:#9E1E35"/>
</linearGradient>
<path style="fill:url(#SVGID_00000135665674093984927430000013742169696297772946_);" d="M851,607.3c-3.7,12.6-9.2,24.8-16.7,36.1
	c8.7,13,15.8,24.9,21.1,35.4c-4.8,5.8-10.1,11.4-15.8,16.7c-5.7,5.3-11.7,10.1-17.9,14.4c-10-6.2-21.3-14.3-33.6-24
	c-10.6,5.9-21.8,10.1-33.3,12.8c-1.4-5.3-3.1-10.6-4.9-15.8c-0.6-1.8-1.3-3.6-2-5.4c-1.4-3.7-3-7.4-4.6-11.1
	c-0.6-1.4-1.2-2.7-1.9-4.1c-0.5-1.1-1-2.2-1.6-3.3c-0.1-0.1-0.1-0.2-0.2-0.4c-17.2-34.8-43.6-65.7-76.7-90.9
	c-2.1-1.6-4.2-3.2-6.4-4.7c-0.1-0.1-0.1-0.1-0.2-0.2c-2.6-1.9-5.2-3.7-7.8-5.4c-9.5-6.4-19.4-12.3-29.8-17.8
	c-1.7-0.9-3.5-1.8-5.2-2.7c-4.6-2.3-9.2-4.5-14-6.6c3.6-11.4,8.9-22.3,15.6-32.5c-8.7-13-15.8-24.9-21.1-35.4
	c4.8-5.8,10.1-11.4,15.8-16.7c5.7-5.3,11.7-10.1,17.9-14.4c10,6.2,21.3,14.3,33.6,24c11.8-6.5,24.4-11.1,37.3-13.7
	c3.1-15.3,6.5-28.8,10.1-40c15.3-1.4,30.7-0.8,45.8,1.9c2.7,11.4,5,25.2,6.8,40.7c12.6,3.7,24.8,9.2,36.1,16.7
	c13-8.7,24.9-15.8,35.4-21.1c5.8,4.8,11.4,10.1,16.7,15.8c5.3,5.7,10.1,11.7,14.4,17.9c-6.2,10-14.3,21.3-24,33.6
	c6.5,11.8,11.1,24.4,13.7,37.3c15.3,3.1,28.8,6.5,40,10.1c1.4,15.3,0.8,30.7-1.9,45.9C880.3,603.2,866.5,605.5,851,607.3L851,607.3z
	"/>
<path class="st10" d="M392.9,21.2c-14.2,0-25.7,11.5-25.7,25.7s11.5,25.7,25.7,25.7c14.2,0,25.7-11.5,25.7-25.7
	S407.1,21.2,392.9,21.2z M392.9,58.8c-6.6,0-11.9-5.3-11.9-11.9S386.4,35,392.9,35c6.6,0,11.9,5.3,11.9,11.9S399.5,58.8,392.9,58.8z
	"/>
<path class="st11" d="M523.1,130.4h-8.2v-4.1l8.3-0.1l0-1.9h-8.3v-4.9h8.4c0-2.4,0.1-4.6,0.1-6.8v-4.2c0-1.5-0.9-2.8-2.2-3.4
	c-3.5-1.4-6.4-3.6-8.5-7c-4.1-6.8-2.5-15.2,3.9-20.4c5.8-4.8,13.9-4.4,19.7,0.8c8.7,7.9,6.5,21.5-4.4,26.2c-2,0.8-2.6,1.8-2.5,3.9
	c0.1,9.1,0,18.3,0.1,27.4c0,1.8,0.1,3.6-2,4.3c-2,0.7-3.9,0-4.5-1.8c-0.1-0.4-0.2-1-0.2-1l-8,0v-5.1l8.1,0L523.1,130.4z M526.1,85.5
	c-2.3,0-4.5,2.1-4.5,4.5c0,2.3,2,4.5,4.4,4.5c2.5,0,4.5-1.9,4.5-4.3C530.6,87.7,528.4,85.5,526.1,85.5z"/>
<g>
	<path class="st12" d="M218.3,190.4c-0.5,0.6-1.2,1-2,1.6c0.8,3.5,1.6,7.1,2.5,10.8h-11.3c0.5-2.4,1-4.7,1.5-7
		c0.1-0.2,0.1-0.5,0.2-0.7c0.6-1.8,0.6-3.1-1.1-4.6c-3-2.7-2.9-7.7-0.2-10.8c2.8-3.2,7.4-3.2,10.1-0.2
		C220.8,182.6,221,187.5,218.3,190.4z"/>
	<path class="st12" d="M242.5,163c-1-0.6-1.3-1.2-1.3-2.2c5.6-35.1-47-46.1-56-11.8c-1.3,4.2,0.9,10.2-1.5,13.7
		c-14.6,8-8.1,29.3-9.2,42.9c1.3,19.3,23.3,16.1,38.1,16.1v0c15.7,0.1,37.8,2.9,39.1-17.4C250.5,190.8,257.2,171.5,242.5,163z
		 M208.7,135c11.2-2.4,22.3,4.2,24.3,14.4c0.6,3.2,0.1,6.5,0.1,10h-40C191.2,147.6,195.5,137.8,208.7,135z M244,202.6
		c-0.1,5.3-4,9.6-9.4,10.6c-0.9,0.2-1.8,0.2-2.7,0.2c-6.2,0-12.4,0-18.6,0v0c-6.3,0-12.5-0.1-18.8,0c-7.6,0.2-12.4-6.5-12.3-11.5
		c0.2-8.1,0-16.3,0.1-24.4c0-5.9,5.4-10.8,12-11c4.5-0.1,9,0,13.4,0c7.8,0,15.5,0,23.3,0c8.1,0,13.2,4.8,13.2,12.3
		C244.1,186.8,244.1,194.7,244,202.6z"/>
</g>
<path class="st13" d="M802.6,564.9c-0.7-11.7-0.5-23.3-0.3-35.6c0.1-5.5,0.2-11.1,0.2-16.7V509l-3.5-0.4c-0.5-0.1-0.9-0.1-1.3-0.2
	c-0.8-0.1-1.6-0.2-2.4-0.2c-24.9-0.3-46.1-5.1-65-14.6c-3.3-1.7-7.6-0.6-10.5,0.3c-4.3,1.4-8.5,2.9-12.7,4.4
	c-7.5,2.7-15.2,5.4-23,7.3c-6.9,1.6-14.1,2.2-21.7,2.7c-3.4,0.3-6.9,0.5-10.5,0.9l-3.4,0.4l-0.2,3.4c0,0.4,0,0.9-0.1,1.3
	c-0.1,1.2-0.2,2.5-0.2,3.9c0,6.9,0.1,13.9,0.2,20.8c0.1,6.1,0.1,12.2,0.2,18.4c2.6,1.8,5.2,3.6,7.8,5.4c0.1,0,0.2,0.1,0.2,0.2
	c0-8.1-0.1-16.2-0.2-24.1c-0.1-6.9-0.1-13.9-0.2-20.8c0-0.4,0-0.9,0-1.3c2.3-0.2,4.6-0.4,6.9-0.5c7.6-0.6,15.4-1.2,22.9-2.9
	c8.2-1.9,16.1-4.8,23.8-7.5c4.1-1.5,8.3-3,12.4-4.3c2.2-0.7,3.4-0.8,4-0.8c0.3,0,0.5,0,0.5,0c19.8,9.9,41.9,15,67.7,15.4
	c0,4.4-0.1,8.8-0.1,13c-0.2,11.9-0.4,24.2,0.3,36.2c1.8,30.2-9.3,55.3-33.8,76.7c-6.8,5.9-13.9,11.5-21.1,16.9
	c0.5,1.1,1.1,2.2,1.6,3.3c0.6,1.4,1.3,2.7,1.9,4.1c7.7-5.8,15.5-11.9,22.9-18.3C792.2,625.3,804.5,597.3,802.6,564.9z"/>
<polygon class="st13" points="771.1,555.2 719.4,607 719.4,607 692.3,579.9 703.8,568.4 719.4,583.9 759.5,543.7 "/>
<circle class="st13" cx="97.6" cy="365.7" r="9.3"/>
<circle class="st12" cx="69" cy="319.8" r="13.1"/>
<circle class="st13" cx="389.2" cy="142.7" r="8.1"/>
<circle class="st14" cx="710" cy="370.3" r="4.6"/>
<circle class="st15" cx="802.8" cy="365.7" r="13.6"/>
<circle class="st13" cx="675.1" cy="72.6" r="13.6"/>
<path class="st3" d="M867.4,168.5C867.4,168.5,867.4,168.5,867.4,168.5l-45.3-43.4c5.2-6.9,8.3-15.5,8.3-24.8
	c0-22.7-18.4-41.1-41.1-41.1s-41.1,18.4-41.1,41.1s18.4,41.1,41.1,41.1c8,0,15.5-2.3,21.8-6.3l45.5,43.5c0,0,0,0,0,0c0,0,0,0,0,0
	c1.3,1.5,3.3,2.4,5.5,2.4c4.1,0,7.4-3.3,7.4-7.4C869.6,171.7,868.7,169.9,867.4,168.5z M813.3,116.8c-2.8,4.2-6.7,7.5-11.3,9.8
	c-3.8,1.9-8.2,2.9-12.7,2.9c-16,0-29.1-13-29.1-29.1s13-29.1,29.1-29.1s29.1,13,29.1,29.1C818.3,106.5,816.5,112.1,813.3,116.8z"/>
<circle class="st16" cx="813.1" cy="285.8" r="10.3"/>
<g>
	<path class="st17" d="M788.4,87.2c-2.3,0.7-4.5,1.7-6.8,2.2c-2,0.5-4,0.5-6.2,0.7c0,0.3-0.1,0.6,0,0.9c0,3.9,0.1,7.7,0.1,11.6
		c0,3,1,5.6,2.7,8c2.8,4.1,6.8,6.9,10.9,9.5c0.1,0,0.1,0.1,0.2,0.1V87C789,87.1,788.7,87.1,788.4,87.2z"/>
	<path class="st15" d="M796.5,115c4.5-4,7-8.9,6.6-15.1c-0.2-3.3,0-6.5,0-9.9c-0.3,0-0.4-0.1-0.6-0.1c-4.4-0.1-8.6-0.8-12.6-2.8
		c-0.2-0.1-0.4-0.1-0.6-0.1v33.2c0.2,0,0.6-0.1,0.7-0.2C792.2,118.4,794.4,116.8,796.5,115z"/>
</g>
<linearGradient id="SVGID_00000031165298282860735370000003595494794601089934_" gradientUnits="userSpaceOnUse" x1="102.1975" y1="443.2374" x2="266.7402" y2="443.2374">
	<stop  offset="0" style="stop-color:#781C34"/>
	<stop  offset="1" style="stop-color:#ED1C24"/>
</linearGradient>
<path style="fill:url(#SVGID_00000031165298282860735370000003595494794601089934_);" d="M265.6,429.2c-4.2-0.9-8.8-1.8-13.8-2.6
	c-1.7-6.7-4.3-13.3-8-19.3c3-4.1,5.6-8,7.9-11.6c-5.4-7.6-12-14.3-19.7-19.7c-3.6,2.3-7.5,5-11.6,7.9c-6.1-3.7-12.6-6.4-19.4-8
	c-0.8-5-1.7-9.6-2.6-13.8c-9.5-1.6-18.9-1.6-27.9,0c-0.9,4.2-1.8,8.8-2.6,13.8c-6.7,1.7-13.3,4.3-19.3,8c-4.1-3-8-5.6-11.6-7.9
	c-7.6,5.4-14.3,12-19.7,19.7c2.3,3.6,5,7.5,7.9,11.6c-3.7,6.1-6.4,12.6-8,19.3c-5,0.8-9.6,1.7-13.8,2.6c-1.6,9.5-1.6,18.9,0,27.9
	c4.2,0.9,8.8,1.8,13.8,2.6c1.7,6.7,4.3,13.3,8,19.3c-3,4.1-5.6,8-7.9,11.6c5.4,7.6,12,14.3,19.7,19.7c3.6-2.3,7.5-5,11.6-8
	c6.1,3.7,12.6,6.4,19.3,8c0.8,5,1.7,9.6,2.6,13.8c9.5,1.6,18.9,1.6,27.9,0c0.9-4.2,1.8-8.8,2.6-13.8l0,0c6.7-1.7,13.3-4.3,19.3-8
	c4.1,3,7.9,5.6,11.6,7.9c7.6-5.4,14.3-12,19.7-19.7c-2.3-3.6-5-7.5-7.9-11.6c3.7-6.1,6.3-12.6,8-19.3v0c5-0.8,9.6-1.6,13.8-2.6
	C267.2,447.6,267.1,438.2,265.6,429.2z M217.4,443.2c0,18.2-14.8,33-33,33c-18.2,0-33-14.8-33-33s14.8-33,33-33
	C202.7,410.3,217.4,425,217.4,443.2z"/>
<g>
	<line class="st19" x1="712.7" y1="253.6" x2="737.7" y2="253.6"/>
	<path class="st20" d="M737.7,254.6h-25c-0.6,0-1-0.4-1-1s0.4-1,1-1h25c0.6,0,1,0.4,1,1S738.3,254.6,737.7,254.6z"/>
</g>
<g>
	<line class="st19" x1="685.6" y1="305.7" x2="685.6" y2="280.7"/>
	<path class="st20" d="M685.6,306.7c-0.6,0-1-0.4-1-1v-25c0-0.6,0.4-1,1-1s1,0.4,1,1v25C686.6,306.3,686.2,306.7,685.6,306.7z"/>
</g>
<g>
	<line class="st19" x1="685.6" y1="226.5" x2="685.6" y2="201.5"/>
	<path class="st20" d="M685.6,227.5c-0.6,0-1-0.4-1-1v-25c0-0.6,0.4-1,1-1s1,0.4,1,1v25C686.6,227,686.2,227.5,685.6,227.5z"/>
</g>
<g>
	<line class="st19" x1="633.5" y1="253.6" x2="658.5" y2="253.6"/>
	<path class="st20" d="M658.5,254.6h-25c-0.6,0-1-0.4-1-1s0.4-1,1-1h25c0.6,0,1,0.4,1,1S659,254.6,658.5,254.6z"/>
</g>
<path class="st21" d="M692,216.9c17.4,3.1,30.9,18.4,30.9,36.7"/>
<path class="st21" d="M722.6,258.1c-2.3,18.6-18.2,32.7-36.9,32.7"/>
<path class="st21" d="M685.6,207.8c23,0,42.6,17.4,45.4,40.2"/>
<path class="st21" d="M685.6,299.4"/>
<path class="st22" d="M685.6,299.4"/>
<path class="st22" d="M731.4,253.6"/>
<circle class="st12" cx="685.3" cy="247.5" r="8.5"/>
<path class="st12" d="M701.4,268.2h-32c0-5.3,3.9-9.9,9.4-11.9c1.8,1.3,4,2.1,6.4,2.1c2.4,0,4.7-0.8,6.5-2.2
	C697.4,258.2,701.4,262.8,701.4,268.2z"/>
<path class="st21" d="M731.1,253.8c0,23-17.4,42.6-40.2,45.4"/>
<path class="st21" d="M648.9,258.1c2.3,18.6,18.2,32.7,36.9,32.7"/>
<path class="st21" d="M679.8,299c-22.9-2.5-40.5-22-40.7-45"/>
<path class="st21" d="M679.8,216.8c-17.8,2.7-31.6,18.3-31.6,36.8"/>
<path class="st21" d="M685.4,207.8c-23,0-42.6,17.4-45.4,40.2"/>
<g>
	<circle class="st23" cx="68.3" cy="607.4" r="32.7"/>
	<ellipse class="st23" cx="68.3" cy="607.4" rx="13.9" ry="32.7"/>
	<path class="st23" d="M93.3,628.4c-3.1-2.1-7-3.7-11.4-4.9c-4.1-1.1-8.8-1.7-13.6-1.7c-4.9,0-9.5,0.6-13.6,1.7
		c-4.4,1.1-8.3,2.8-11.4,4.9"/>
	<path class="st23" d="M43.2,586.4c3.1,2.1,7,3.7,11.4,4.9c4.1,1.1,8.8,1.7,13.6,1.7c4.9,0,9.5-0.6,13.6-1.7
		c4.4-1.1,8.3-2.8,11.4-4.9"/>
	<line class="st23" x1="35.6" y1="607.4" x2="100.9" y2="607.4"/>
</g>
<g>
	<path class="st24" d="M94.9,644.6c-0.2,0.2-0.4,0.3-0.6,0.5c0.2,1,0.5,2.1,0.7,3.2h-3.4c0.2-0.7,0.3-1.4,0.5-2.1c0-0.1,0-0.1,0-0.2
		c0.2-0.5,0.2-0.9-0.3-1.4c-0.9-0.8-0.9-2.3-0.1-3.2c0.8-0.9,2.2-1,3,0C95.6,642.3,95.6,643.7,94.9,644.6z"/>
	<path class="st24" d="M102,636.5c-0.3-0.2-0.4-0.4-0.4-0.7c1.7-10.4-13.9-13.7-16.6-3.5c-0.4,1.2,0.3,3-0.4,4.1
		c-4.3,2.4-2.4,8.7-2.7,12.7c0.4,5.7,6.9,4.8,11.3,4.8v0c4.7,0,11.2,0.9,11.6-5.1C104.4,644.7,106.4,639,102,636.5z M92,628.2
		c3.3-0.7,6.6,1.3,7.2,4.3c0.2,0.9,0,1.9,0,3H87.4C86.8,631.9,88.1,629,92,628.2z M102.5,648.2c0,1.6-1.2,2.8-2.8,3.1
		c-0.3,0.1-0.5,0.1-0.8,0.1c-1.8,0-3.7,0-5.5,0v0c-1.9,0-3.7,0-5.6,0c-2.3,0.1-3.7-1.9-3.7-3.4c0-2.4,0-4.8,0-7.2
		c0-1.7,1.6-3.2,3.5-3.2c1.3,0,2.7,0,4,0c2.3,0,4.6,0,6.9,0c2.4,0,3.9,1.4,3.9,3.6C102.5,643.5,102.5,645.9,102.5,648.2z"/>
</g>
</svg>
