<?xml version="1.0" encoding="UTF-8"?>
<svg id="Vrstva_1" data-name="Vrstva 1" xmlns="http://www.w3.org/2000/svg" width="549.95" height="550.37" xmlns:xlink="http://www.w3.org/1999/xlink" viewBox="0 0 549.95 550.37">
  <defs>
    <style>
      .cls-1 {
        stroke: #b72524;
      }

      .cls-1, .cls-2, .cls-3, .cls-4, .cls-5, .cls-6, .cls-7, .cls-8, .cls-9, .cls-10, .cls-11, .cls-12, .cls-13, .cls-14, .cls-15, .cls-16, .cls-17, .cls-18, .cls-19 {
        stroke-miterlimit: 10;
      }

      .cls-1, .cls-2, .cls-3, .cls-4, .cls-5, .cls-6, .cls-7, .cls-8, .cls-9, .cls-10, .cls-12, .cls-13, .cls-14, .cls-15, .cls-16, .cls-17, .cls-18 {
        stroke-width: 4px;
      }

      .cls-1, .cls-2, .cls-3, .cls-4, .cls-5, .cls-6, .cls-8, .cls-9, .cls-10, .cls-11, .cls-12, .cls-13, .cls-14, .cls-15, .cls-16, .cls-17, .cls-18, .cls-19 {
        fill: none;
      }

      .cls-20 {
        fill: url(#Nepojmenovaný_přechod_170);
      }

      .cls-20, .cls-21, .cls-22, .cls-23, .cls-24, .cls-25, .cls-26, .cls-27, .cls-28, .cls-29, .cls-30, .cls-31, .cls-32, .cls-33, .cls-34, .cls-35, .cls-36, .cls-37, .cls-38, .cls-39, .cls-40, .cls-41, .cls-42, .cls-43, .cls-44, .cls-45, .cls-46, .cls-47, .cls-48, .cls-49, .cls-50 {
        stroke-width: 0px;
      }

      .cls-21 {
        fill: #bb2421;
      }

      .cls-22 {
        fill: #f7a11e;
      }

      .cls-2 {
        stroke: #92303f;
      }

      .cls-3, .cls-11, .cls-19 {
        stroke: #bb2136;
      }

      .cls-23 {
        fill: url(#Nepojmenovaný_přechod_160-2);
      }

      .cls-24, .cls-7 {
        fill: #bb2136;
      }

      .cls-25 {
        fill: #f16924;
      }

      .cls-26 {
        fill: url(#Nepojmenovaný_přechod_160-6);
      }

      .cls-27 {
        fill: url(#Nepojmenovaný_přechod_160-4);
      }

      .cls-28 {
        fill: url(#Nepojmenovaný_přechod_8);
      }

      .cls-4 {
        stroke: #863348;
      }

      .cls-29 {
        fill: url(#Nepojmenovaný_přechod_152);
      }

      .cls-30 {
        fill: url(#Nepojmenovaný_přechod_144-2);
      }

      .cls-31 {
        fill: #ff2a1d;
      }

      .cls-5 {
        stroke: #a72a30;
      }

      .cls-32 {
        fill: url(#Nepojmenovaný_přechod_144);
      }

      .cls-6 {
        stroke: #8a3245;
      }

      .cls-33 {
        fill: url(#Nepojmenovaný_přechod_11);
      }

      .cls-34 {
        fill: #f7931e;
      }

      .cls-35 {
        fill: url(#Nepojmenovaný_přechod_160);
      }

      .cls-7 {
        stroke: #781c34;
      }

      .cls-8 {
        stroke: #962e3c;
      }

      .cls-36 {
        fill: url(#Nepojmenovaný_přechod_7);
      }

      .cls-37 {
        fill: #ff1d25;
      }

      .cls-38 {
        fill: #fbba3b;
      }

      .cls-39 {
        fill: #5a1b33;
      }

      .cls-9 {
        stroke: #9e2c36;
      }

      .cls-40 {
        fill: url(#Nepojmenovaný_přechod_147);
      }

      .cls-41 {
        fill: url(#Nepojmenovaný_přechod_15);
      }

      .cls-42 {
        fill: #9e1e35;
      }

      .cls-43 {
        fill: url(#Nepojmenovaný_přechod_160-7);
      }

      .cls-10 {
        stroke: #af272a;
      }

      .cls-11, .cls-19 {
        stroke-width: 3px;
      }

      .cls-44 {
        fill: #9e1e1e;
      }

      .cls-12 {
        stroke: #bb2421;
      }

      .cls-45 {
        fill: url(#Nepojmenovaný_přechod_3);
      }

      .cls-46 {
        fill: url(#Nepojmenovaný_přechod_140);
      }

      .cls-47 {
        fill: #781c34;
      }

      .cls-13 {
        stroke: #f7a11e;
      }

      .cls-48 {
        fill: url(#Nepojmenovaný_přechod_160-5);
      }

      .cls-49 {
        fill: url(#Nepojmenovaný_přechod_7-2);
      }

      .cls-14 {
        stroke: #8e3142;
      }

      .cls-15 {
        stroke: #ab292d;
      }

      .cls-50 {
        fill: url(#Nepojmenovaný_přechod_160-3);
      }

      .cls-16 {
        stroke: #a32b33;
      }

      .cls-17 {
        stroke: #9a2d39;
      }

      .cls-18 {
        stroke: #b32627;
      }

      .cls-19 {
        stroke-dasharray: 0 0 6 6;
      }
    </style>
    <linearGradient id="Nepojmenovaný_přechod_140" data-name="Nepojmenovaný přechod 140" x1="173.67" y1="268.07" x2="387.09" y2="268.07" gradientUnits="userSpaceOnUse">
      <stop offset="0" stop-color="#371831"/>
      <stop offset="1" stop-color="#ff1d25"/>
    </linearGradient>
    <linearGradient id="Nepojmenovaný_přechod_144" data-name="Nepojmenovaný přechod 144" x1="244.63" y1="97.16" x2="316.57" y2="97.16" gradientUnits="userSpaceOnUse">
      <stop offset="0" stop-color="#9e1e35"/>
      <stop offset="1" stop-color="#f7a11e"/>
    </linearGradient>
    <linearGradient id="Nepojmenovaný_přechod_7" data-name="Nepojmenovaný přechod 7" x1="84.83" y1="93.55" x2="207.48" y2="93.55" gradientUnits="userSpaceOnUse">
      <stop offset="0" stop-color="#f16924"/>
      <stop offset="1" stop-color="#bb2421"/>
    </linearGradient>
    <linearGradient id="Nepojmenovaný_přechod_15" data-name="Nepojmenovaný přechod 15" x1="122.03" y1="186.14" x2="170.28" y2="186.14" gradientUnits="userSpaceOnUse">
      <stop offset="0" stop-color="#9e1e1e"/>
      <stop offset="1" stop-color="#bb2136"/>
    </linearGradient>
    <linearGradient id="Nepojmenovaný_přechod_8" data-name="Nepojmenovaný přechod 8" x1="126.67" y1="156.44" x2="165.65" y2="156.44" gradientUnits="userSpaceOnUse">
      <stop offset="0" stop-color="#f7a11e"/>
      <stop offset="1" stop-color="#f16924"/>
    </linearGradient>
    <linearGradient id="Nepojmenovaný_přechod_170" data-name="Nepojmenovaný přechod 170" x1="0" y1="439.73" x2="201.9" y2="439.73" gradientUnits="userSpaceOnUse">
      <stop offset="0" stop-color="#781c34"/>
      <stop offset="1" stop-color="#ff1d25"/>
    </linearGradient>
    <linearGradient id="Nepojmenovaný_přechod_7-2" data-name="Nepojmenovaný přechod 7" x1="105.44" y1="482.44" x2="242.81" y2="482.44" xlink:href="#Nepojmenovaný_přechod_7"/>
    <linearGradient id="Nepojmenovaný_přechod_160" data-name="Nepojmenovaný přechod 160" x1="385.14" y1="463.76" x2="399.73" y2="463.76" gradientUnits="userSpaceOnUse">
      <stop offset="0" stop-color="#9e1e35"/>
      <stop offset="1" stop-color="#f7931e"/>
    </linearGradient>
    <linearGradient id="Nepojmenovaný_přechod_160-2" data-name="Nepojmenovaný přechod 160" x1="374.79" y1="425.54" x2="409.32" y2="425.54" xlink:href="#Nepojmenovaný_přechod_160"/>
    <linearGradient id="Nepojmenovaný_přechod_160-3" data-name="Nepojmenovaný přechod 160" x1="374.79" y1="425.54" x2="409.32" y2="425.54" xlink:href="#Nepojmenovaný_přechod_160"/>
    <linearGradient id="Nepojmenovaný_přechod_160-4" data-name="Nepojmenovaný přechod 160" y1="456.93" y2="456.93" xlink:href="#Nepojmenovaný_přechod_160"/>
    <linearGradient id="Nepojmenovaný_přechod_160-5" data-name="Nepojmenovaný přechod 160" x1="374.79" y1="425.54" x2="409.32" y2="425.54" xlink:href="#Nepojmenovaný_přechod_160"/>
    <linearGradient id="Nepojmenovaný_přechod_160-6" data-name="Nepojmenovaný přechod 160" x1="331.28" y1="419.49" x2="453.38" y2="419.49" xlink:href="#Nepojmenovaný_přechod_160"/>
    <linearGradient id="Nepojmenovaný_přechod_160-7" data-name="Nepojmenovaný přechod 160" x1="331.28" y1="484.72" x2="453.38" y2="484.72" xlink:href="#Nepojmenovaný_přechod_160"/>
    <linearGradient id="Nepojmenovaný_přechod_147" data-name="Nepojmenovaný přechod 147" x1="446.44" y1="276.84" x2="549.95" y2="276.84" gradientUnits="userSpaceOnUse">
      <stop offset="0" stop-color="#f15a24"/>
      <stop offset="1" stop-color="#9e1e1e"/>
    </linearGradient>
    <linearGradient id="Nepojmenovaný_přechod_152" data-name="Nepojmenovaný přechod 152" x1="237.09" y1="37.02" x2="237.09" y2="66.01" gradientUnits="userSpaceOnUse">
      <stop offset="0" stop-color="#781c24"/>
      <stop offset="1" stop-color="#f15a24"/>
    </linearGradient>
    <linearGradient id="Nepojmenovaný_přechod_3" data-name="Nepojmenovaný přechod 3" x1="401.33" y1="353.21" x2="401.33" y2="378.37" gradientUnits="userSpaceOnUse">
      <stop offset="0" stop-color="#781c24"/>
      <stop offset="1" stop-color="#f7a11e"/>
    </linearGradient>
    <linearGradient id="Nepojmenovaný_přechod_144-2" data-name="Nepojmenovaný přechod 144" x1="402.09" y1="218.62" x2="459.16" y2="218.62" xlink:href="#Nepojmenovaný_přechod_144"/>
    <linearGradient id="Nepojmenovaný_přechod_11" data-name="Nepojmenovaný přechod 11" x1="71.87" y1="151.06" x2="71.87" y2="180.05" gradientUnits="userSpaceOnUse">
      <stop offset="0" stop-color="#f16924"/>
      <stop offset="1" stop-color="#bb2136"/>
    </linearGradient>
  </defs>
  <circle class="cls-34" cx="281.88" cy="268.96" r="98.82"/>
  <polygon class="cls-24" points="343.02 359.3 343.02 359.29 356.52 359.81 356.43 362.07 347.55 361.73 351.09 365.27 350.02 366.34 348.97 367.39 345.43 363.84 345.74 372.73 343.49 372.81 343.02 359.3"/>
  <polygon class="cls-24" points="219.65 359.31 219.66 359.31 219.14 372.81 216.89 372.72 217.22 363.84 179.62 401.44 178.56 400.37 177.5 399.32 215.11 361.72 206.23 362.03 206.14 359.78 219.65 359.31"/>
  <g>
    <rect class="cls-24" x="278.89" y="389.45" width="2.99" height="1.41"/>
    <rect class="cls-24" x="278.89" y="391.49" width="2.99" height="1.4"/>
    <rect class="cls-24" x="278.89" y="393.52" width="2.99" height="1.41"/>
    <rect class="cls-24" x="278.89" y="395.56" width="2.99" height="1.4"/>
    <rect class="cls-24" x="278.89" y="397.59" width="2.99" height="1.41"/>
    <rect class="cls-24" x="278.89" y="399.63" width="2.99" height="1.4"/>
    <rect class="cls-24" x="278.89" y="401.66" width="2.99" height="1.41"/>
    <rect class="cls-24" x="278.89" y="403.7" width="2.99" height="1.4"/>
    <rect class="cls-24" x="278.89" y="405.73" width="2.99" height="1.41"/>
    <rect class="cls-24" x="278.89" y="407.77" width="2.99" height="1.4"/>
    <rect class="cls-24" x="278.89" y="409.8" width="2.99" height="1.41"/>
    <polygon class="cls-24" points="281.88 411.84 281.88 413.24 278.88 413.24 278.89 411.84 281.88 411.84"/>
    <rect class="cls-24" x="278.88" y="413.87" width="3" height="1.41"/>
    <rect class="cls-24" x="278.88" y="415.91" width="3" height="1.4"/>
    <rect class="cls-24" x="278.88" y="417.94" width="3" height="1.41"/>
    <rect class="cls-24" x="278.88" y="419.98" width="3" height="1.4"/>
    <rect class="cls-24" x="278.88" y="422.01" width="3" height="1.41"/>
    <rect class="cls-24" x="278.88" y="424.05" width="3" height="15.31"/>
    <polygon class="cls-24" points="289.58 391.17 287.92 392.7 281.88 386.18 281.88 388.82 278.89 388.82 278.89 386.18 272.83 392.68 271.18 391.15 280.39 381.27 280.4 381.26 289.58 391.17"/>
  </g>
  <path class="cls-24" d="M302.7,494.73c-15.15-5.27-24.05-26.2-23.82-56l3,.02c-.22,28.45,7.93,48.32,21.81,53.14l-.99,2.83Z"/>
  <polyline class="cls-11" points="63.3 237.57 63.3 332.13 70.3 339.36 139.37 339.36 146.23 332.5 146.23 207.96"/>
  <line class="cls-11" x1="121.39" y1="313" x2="187.55" y2="287.47"/>
  <line class="cls-11" x1="94.8" y1="339.36" x2="94.8" y2="380.37"/>
  <line class="cls-11" x1="237.12" y1="438.73" x2="222.29" y2="438.73"/>
  <path class="cls-24" d="M434.99,339.05h-49.09c-2.26,0-3.9-1.19-5.1-2.48l-11.05-12.14c-.56-.61-.52-1.56.08-2.12h0c.61-.56,1.56-.52,2.12.08l10.16,11.17c1.38,1.42,2.64,2.49,5.1,2.48h47.77c.83,0,1.5.67,1.5,1.5h0c0,.83-.67,1.5-1.5,1.5Z"/>
  <line class="cls-11" x1="362.98" y1="207.59" x2="407.31" y2="163.25"/>
  <path class="cls-24" d="M37.22,134.62h-8.15v-4.08l8.28-.05.03-1.93h-8.33v-4.86h8.44c0-2.42.09-4.62.09-6.82v-4.2c0-1.46-.85-2.82-2.2-3.37-3.53-1.45-6.43-3.63-8.46-7.01-4.1-6.82-2.54-15.16,3.89-20.39,5.85-4.76,13.93-4.41,19.72.85,8.73,7.93,6.53,21.52-4.35,26.18-1.99.85-2.55,1.84-2.53,3.86.1,9.14.04,18.29.08,27.43,0,1.8.11,3.6-2.03,4.33-1.99.68-3.85.04-4.51-1.76-.15-.4-.16-1-.16-1l-7.97-.04v-5.09h8.14s.04-2.05.04-2.05ZM40.26,89.78c-2.32.02-4.5,2.14-4.46,4.46.04,2.27,2.02,4.45,4.37,4.46,2.47,0,4.5-1.94,4.55-4.34.05-2.42-2.16-4.6-4.46-4.57Z"/>
  <path class="cls-46" d="M280.38,161.36c-58.93,0-106.71,47.77-106.71,106.71s47.78,106.71,106.71,106.71,106.71-47.78,106.71-106.71-47.77-106.71-106.71-106.71ZM346.05,319.08c-2.25,36.65-39.6,31.59-66.24,31.36v-.08c-25.01.06-62.28,5.7-64.53-29.05,1.89-24.46-9.09-62.95,15.63-77.37,4.04-6.41.26-17.27,2.51-24.77,15.21-62.05,104.35-42.16,94.82,21.2-.01,1.84.48,2.97,2.12,4.01,24.83,15.31,13.46,50.18,15.69,74.7ZM310.7,250.72c-13.13-.01-26.27,0-39.41.01-7.59,0-15.18-.14-22.76.04-11.08.28-20.19,9.2-20.26,19.8-.1,14.69.16,29.39-.1,44.08-.15,8.9,7.98,21.07,20.9,20.71,10.59-.3,21.21-.06,31.81-.06v-.03c10.51,0,21.02.01,31.53-.02,1.55,0,3.13-.07,4.64-.38,9.14-1.85,15.77-9.6,15.88-19.08.18-14.3.06-28.61.06-42.91s-8.61-22.15-22.29-22.16ZM292.63,317.18h-24.04c1.1-4.52,2.19-9.01,3.28-13.49.12-.47.2-.95.35-1.41,1.19-3.47,1.18-6.01-2.33-8.85-6.46-5.22-6.25-14.74-.41-20.73,5.9-6.06,15.69-6.19,21.5-.31,6.01,6.09,6.33,15.4.62,20.93-1.16,1.13-2.63,1.93-4.28,3.11,1.73,6.78,3.48,13.61,5.31,20.75ZM314.48,237.8c0-6.23.9-12.31-.17-18.01-3.44-18.35-22.19-30.25-41.17-26-22.3,5-29.6,22.75-26.42,44.01h67.76Z"/>
  <path class="cls-32" d="M316.57,97.16c0,10.47-8.48,18.95-18.95,18.95h-34.04c-.8,0-1.58-.05-2.35-.15-9.36-1.15-16.6-9.13-16.6-18.8s7.24-17.65,16.6-18.8c.77-.1,1.55-.15,2.35-.15h34.04c10.47,0,18.95,8.48,18.95,18.95Z"/>
  <circle class="cls-36" cx="146.16" cy="93.55" r="61.33"/>
  <polygon class="cls-24" points="224.35 175.74 224.35 175.75 210.86 175.03 210.98 172.78 219.86 173.25 187.03 139.33 188.11 138.28 189.18 137.24 222.01 171.17 221.83 162.28 224.08 162.23 224.35 175.74"/>
  <polygon class="cls-24" points="280.36 156.66 280.36 156.67 271.18 146.75 272.83 145.22 278.88 151.75 278.88 69.61 280.39 69.61 281.88 69.61 281.87 151.75 287.93 145.25 289.58 146.78 280.36 156.66"/>
  <path class="cls-25" d="M371.21,144.06c0,1.78-.4,3.46-1.11,4.96-1.86,3.9-5.84,6.6-10.44,6.6-5.44,0-9.99-3.75-11.22-8.81-7.98.02-24.41-.01-30.74.02-1.8,0-3.59.11-4.33-2.04-.68-1.98-.04-3.85,1.77-4.5.4-.15.99-.16.99-.16l.04-7.97h5.09v8.13l2.05.05v-8.15h4.08l.05,8.28,1.93.03v-8.34h4.87v8.44c1.16,0,10.44.02,14.38.04,1.45-4.72,5.84-8.14,11.04-8.14,4.43,0,8.28,2.49,10.22,6.16.85,1.61,1.33,3.45,1.33,5.4Z"/>
  <g>
    <line class="cls-7" x1="207.48" y1="98.42" x2="208.83" y2="98.42"/>
    <line class="cls-7" x1="209.74" y1="98.42" x2="211.09" y2="98.42"/>
    <line class="cls-7" x1="212.41" y1="98.42" x2="213.76" y2="98.42"/>
    <line class="cls-7" x1="215.32" y1="98.42" x2="216.67" y2="98.42"/>
    <line class="cls-7" x1="218.53" y1="98.42" x2="219.88" y2="98.42"/>
  </g>
  <g>
    <line class="cls-12" x1="401.45" y1="98.42" x2="417.57" y2="98.42"/>
    <line class="cls-1" x1="387.66" y1="98.42" x2="402.65" y2="98.42"/>
    <line class="cls-18" x1="373.87" y1="98.42" x2="387.73" y2="98.42"/>
    <line class="cls-10" x1="360.09" y1="98.42" x2="372.81" y2="98.42"/>
    <line class="cls-15" x1="346.3" y1="98.42" x2="357.88" y2="98.42"/>
    <line class="cls-5" x1="332.52" y1="98.42" x2="342.96" y2="98.42"/>
    <line class="cls-16" x1="318.73" y1="98.42" x2="328.04" y2="98.42"/>
    <line class="cls-9" x1="304.95" y1="98.42" x2="313.12" y2="98.42"/>
    <line class="cls-17" x1="291.16" y1="98.42" x2="298.2" y2="98.42"/>
    <line class="cls-8" x1="277.38" y1="98.42" x2="283.27" y2="98.42"/>
    <line class="cls-2" x1="263.59" y1="98.42" x2="268.35" y2="98.42"/>
    <line class="cls-14" x1="249.81" y1="98.42" x2="253.43" y2="98.42"/>
    <line class="cls-6" x1="236.02" y1="98.42" x2="238.51" y2="98.42"/>
    <line class="cls-4" x1="222.23" y1="98.42" x2="223.59" y2="98.42"/>
  </g>
  <circle class="cls-3" cx="458.84" cy="119.81" r="67.26"/>
  <path class="cls-42" d="M497.25,81.15c0,9.42-.44,18.59.09,27.69,1.01,17.31-5.8,30.99-18.49,42.07-5.73,5-11.91,9.5-17.97,14.13-.64.49-2.09.7-2.7.31-11.46-7.29-22.43-15.15-30.34-26.54-4.7-6.77-7.41-14.09-7.4-22.42.02-10.77-.14-21.54-.2-32.31,0-.93.09-1.86.14-2.64,5.9-.62,11.69-.66,17.19-1.95,6.44-1.5,12.6-4.14,18.92-6.17,1.24-.4,2.92-.8,3.94-.29,11.07,5.56,22.85,7.73,35.11,7.89.46,0,.92.11,1.7.21Z"/>
  <polygon class="cls-34" points="482.86 103.63 455.67 130.87 455.65 130.86 441.38 116.62 447.45 110.54 455.65 118.73 476.78 97.56 482.86 103.63"/>
  <circle class="cls-41" cx="146.16" cy="186.14" r="24.13"/>
  <circle class="cls-28" cx="146.16" cy="156.44" r="19.49"/>
  <circle class="cls-24" cx="63.3" cy="237.8" r="13.77"/>
  <path class="cls-20" d="M201.9,457.01c0,18.58-6.02,35.76-16.21,49.69H49.61c-.1-.12-.19-.25-.28-.37-1.56.17-3.14.25-4.76.25-24.61,0-44.57-19.96-44.57-44.57s19.24-43.85,43.24-44.55c14.16-26.6,42.17-44.7,74.41-44.7,46.54,0,84.25,37.71,84.25,84.25Z"/>
  <path class="cls-49" d="M242.81,505.09c0,25-20.28,45.28-45.29,45.28-8.88,0-17.15-2.55-24.14-6.96-6.41,3.33-13.68,5.2-21.4,5.2-25.7,0-46.54-20.85-46.54-46.55,0-21.38,14.41-39.38,34.04-44.85,1.34-23.82,21.07-42.7,45.21-42.7s45.29,20.27,45.29,45.29c0,4.19-.57,8.25-1.64,12.11,8.9,8.27,14.46,20.08,14.46,33.18Z"/>
  <path class="cls-44" d="M280.6,527.59c0,11.18-7.89,20.54-18.42,22.78h-63.6c1.31-14.27,13.33-25.46,27.95-25.46,2.61,0,5.15.36,7.55,1.04.84-12.1,10.93-21.65,23.23-21.65s23.29,10.43,23.29,23.29Z"/>
  <path class="cls-34" d="M259.72,116.11h-2.35v-.15c.77.1,1.55.15,2.35.15Z"/>
  <path class="cls-34" d="M259.72,78.21c-.8,0-1.58.05-2.35.15v-.15h2.35Z"/>
  <circle class="cls-24" cx="280.6" cy="56.81" r="16"/>
  <polygon class="cls-24" points="308.07 56.79 308.06 56.78 317.97 47.61 319.51 49.26 312.98 55.3 376.12 55.31 376.12 56.81 376.12 58.31 312.98 58.3 319.48 64.36 317.95 66.01 308.07 56.79"/>
  <path class="cls-24" d="M385.39,44.04c-7.05,0-12.77,5.71-12.77,12.76s5.72,12.77,12.77,12.77,12.77-5.72,12.77-12.77-5.72-12.76-12.77-12.76ZM385.39,63.43c-3.66,0-6.63-2.96-6.63-6.63s2.97-6.63,6.63-6.63,6.63,2.97,6.63,6.63-2.97,6.63-6.63,6.63Z"/>
  <path class="cls-24" d="M388.49,56.8c0,1.72-1.39,3.11-3.1,3.11s-3.11-1.39-3.11-3.11,1.39-3.1,3.11-3.1,3.1,1.39,3.1,3.1Z"/>
  <g>
    <g>
      <path class="cls-35" d="M398.17,455.05c1.59,1.91,1.95,4.36,1.17,6.51-.47,1.31-1.37,2.51-2.67,3.41-.84.58-.89,1.1-.7,1.92.62,2.73,1.21,5.46,1.84,8.33h-10.62c.54-2.44,1.04-4.8,1.62-7.15.32-1.35.3-2.29-1.04-3.33-1.14-.89-1.9-1.99-2.3-3.18-.8-2.4-.1-5.16,2.01-7.22,3.06-2.98,7.88-2.66,10.69.71Z"/>
      <path class="cls-23" d="M409.3,428.13c-.2,4.24-.04,8.5-.04,13h-34.13c-.1-.13-.23-.23-.23-.32.02-5.39-.34-10.81.16-16.16.63-6.78,4.81-11.29,11.08-13.56,6.29-2.27,12.21-1.21,17.24,3.35,4.02,3.63,6.2,8.09,5.92,13.69Z"/>
      <path class="cls-50" d="M409.3,428.13c-.2,4.24-.04,8.5-.04,13h-34.13c-.1-.13-.23-.23-.23-.32.02-5.39-.34-10.81.16-16.16.63-6.78,4.81-11.29,11.08-13.56,6.29-2.27,12.21-1.21,17.24,3.35,4.02,3.63,6.2,8.09,5.92,13.69Z"/>
      <path class="cls-35" d="M395.97,466.89c.62,2.73,1.21,5.46,1.84,8.33h-10.62c.54-2.44,1.04-4.8,1.62-7.15.32-1.35.3-2.29-1.04-3.33-1.14-.89-1.9-1.99-2.3-3.18-.8-2.4-.1-5.16,2.01-7.22,3.06-2.98,7.88-2.66,10.69.71,1.59,1.91,1.95,4.36,1.17,6.51-.47,1.31-1.37,2.51-2.67,3.41-.84.58-.89,1.1-.7,1.92Z"/>
    </g>
    <path class="cls-27" d="M399.34,461.56h-13.87c-.8-2.4-.1-5.16,2.01-7.22,3.06-2.98,7.88-2.66,10.69.71,1.59,1.91,1.95,4.36,1.17,6.51Z"/>
    <path class="cls-35" d="M395.97,466.89c.62,2.73,1.21,5.46,1.84,8.33h-10.62c.54-2.44,1.04-4.8,1.62-7.15.32-1.35.3-2.29-1.04-3.33-1.14-.89-1.9-1.99-2.3-3.18-.8-2.4-.1-5.16,2.01-7.22,3.06-2.98,7.88-2.66,10.69.71,1.59,1.91,1.95,4.36,1.17,6.51-.47,1.31-1.37,2.51-2.67,3.41-.84.58-.89,1.1-.7,1.92Z"/>
    <path class="cls-48" d="M409.3,428.13c-.2,4.24-.04,8.5-.04,13h-34.13c-.1-.13-.23-.23-.23-.32.02-5.39-.34-10.81.16-16.16.63-6.78,4.81-11.29,11.08-13.56,6.29-2.27,12.21-1.21,17.24,3.35,4.02,3.63,6.2,8.09,5.92,13.69Z"/>
    <path class="cls-26" d="M453.38,422.01v25.34h-32.2c-.61-2.64-2.56-4.83-5.14-5.71-1.11-.37-2.33-.42-3.73-.66,0-4.32-.04-8.69.01-13.05.06-5.29-1.6-9.9-5.15-13.82-5.59-6.14-12.47-8.65-20.48-6.32-8.06,2.35-13.42,7.79-14.6,16.31-.64,4.66-.25,9.46-.33,14.2,0,.93,0,1.87,0,2.85-.54.07-.83.12-1.12.14-4.15.3-6.89,2.42-7.7,6.06h-31.66v-25.34c0-16.78,13.61-30.38,30.39-30.38h61.33c16.78,0,30.38,13.6,30.38,30.38Z"/>
    <path class="cls-43" d="M421.43,461.56h31.95v15.94c0,16.78-13.6,30.38-30.38,30.38h-61.33c-16.78,0-30.39-13.6-30.39-30.38v-15.94h31.34c-.02,5.28,0,10.57.05,15.85.04,4.97,3.22,7.98,8.24,8.03h42.61c4.7-.03,7.8-2.93,7.85-7.57.05-5.43.07-10.87.06-16.31Z"/>
  </g>
  <path class="cls-37" d="M501.35,517.66h-8.15v-4.08l8.28-.05.03-1.93h-8.33v-4.86h8.44c0-2.42.09-4.62.09-6.82v-4.2c0-1.46-.85-2.82-2.2-3.37-3.53-1.45-6.43-3.63-8.46-7.01-4.1-6.82-2.54-15.16,3.89-20.39,5.85-4.76,13.93-4.41,19.72.85,8.73,7.93,6.53,21.52-4.35,26.18-1.99.85-2.55,1.84-2.53,3.86.1,9.14.04,18.29.08,27.43,0,1.8.11,3.6-2.03,4.33-1.99.68-3.85.04-4.51-1.76-.15-.4-.16-1-.16-1l-7.97-.04v-5.09h8.14s.04-2.05.04-2.05ZM504.39,472.82c-2.32.02-4.5,2.14-4.46,4.46.04,2.27,2.02,4.45,4.37,4.46,2.47,0,4.5-1.94,4.55-4.34.05-2.42-2.16-4.6-4.46-4.57Z"/>
  <path class="cls-39" d="M175.74,117.83h-59.16c0-14.14,9.92-25.97,23.19-28.88-5.36-2.42-9.09-7.82-9.09-14.09,0-8.55,6.93-15.48,15.48-15.48s15.48,6.93,15.48,15.48c0,6.27-3.73,11.67-9.09,14.09,13.27,2.91,23.19,14.74,23.19,28.88Z"/>
  <path class="cls-40" d="M525.33,304.42h-55.83c0-13.34,9.36-24.51,21.89-27.25-5.06-2.28-8.58-7.38-8.58-13.3,0-8.07,6.54-14.61,14.61-14.61s14.61,6.54,14.61,14.61c0,5.92-3.52,11.01-8.58,13.3,12.52,2.75,21.89,13.91,21.89,27.25ZM471.1,272.1c3.67-1.66,6.23-5.36,6.23-9.65,0-5.86-4.75-10.62-10.61-10.62s-10.61,4.76-10.61,10.62c0,4.29,2.56,7.99,6.23,9.65-9.1,2-15.9,10.11-15.9,19.8h23.26c2.38-5.78,6.64-10.57,12.02-13.64-2.77-3.05-6.46-5.25-10.63-6.16ZM534.05,270.33c3.68-1.66,6.24-5.36,6.24-9.65,0-5.86-4.76-10.62-10.62-10.62s-10.61,4.76-10.61,10.62c0,4.29,2.56,7.99,6.23,9.65-4.96,1.09-9.24,3.99-12.1,7.99,4.78,2.74,8.66,6.86,11.12,11.81h25.64c0-9.69-6.8-17.81-15.9-19.8Z"/>
  <circle class="cls-24" cx="246.01" cy="437.7" r="12.16"/>
  <circle class="cls-31" cx="307.85" cy="425.54" r="12.16"/>
  <circle class="cls-31" cx="346.76" cy="12.16" r="12.16"/>
  <path class="cls-47" d="M215.91,0c-6.72,0-12.16,5.44-12.16,12.16s5.44,12.16,12.16,12.16,12.16-5.44,12.16-12.16S222.62,0,215.91,0ZM215.91,17.23c-2.8,0-5.08-2.27-5.08-5.07s2.28-5.07,5.08-5.07,5.07,2.27,5.07,5.07-2.27,5.07-5.07,5.07Z"/>
  <path class="cls-31" d="M446.45,325.4c-6.72,0-12.16,5.44-12.16,12.16s5.44,12.16,12.16,12.16,12.16-5.44,12.16-12.16-5.45-12.16-12.16-12.16ZM446.45,342.63c-2.8,0-5.08-2.27-5.08-5.07s2.28-5.07,5.08-5.07,5.07,2.27,5.07,5.07-2.27,5.07-5.07,5.07Z"/>
  <polygon class="cls-24" points="442 275.07 432.09 284.25 430.56 282.59 437.08 276.55 399.94 276.54 399.94 276.53 396.45 276.53 402.95 282.6 401.42 284.25 391.54 275.03 391.53 275.02 401.44 265.84 402.97 267.5 396.45 273.54 433.59 273.55 433.59 273.56 437.09 273.56 430.58 267.49 432.11 265.84 441.99 275.06 442 275.07"/>
  <rect class="cls-29" x="228.16" y="37.02" width="17.84" height="28.99"/>
  <rect class="cls-22" x="419.95" y="23.97" width="16.51" height="16.51" transform="translate(102.63 312.22) rotate(-45)"/>
  <rect class="cls-24" x="299.59" y="489.38" width="16.51" height="16.51" transform="translate(-261.71 363.44) rotate(-45)"/>
  <rect class="cls-22" x="32.01" y="353.13" width="16.51" height="16.51" transform="translate(-243.75 134.32) rotate(-45)"/>
  <rect class="cls-45" x="395.11" y="353.21" width="12.45" height="25.16"/>
  <rect class="cls-30" x="402.09" y="209.78" width="57.07" height="17.69"/>
  <path class="cls-44" d="M234.18,132.38c-4.83,1.28-5.87,2.32-7.15,7.15-1.28-4.83-2.32-5.87-7.15-7.15,4.83-1.28,5.87-2.32,7.15-7.15,1.28,4.83,2.32,5.87,7.15,7.15Z"/>
  <path class="cls-47" d="M261.55,398.45c-4.83,1.28-5.87,2.32-7.15,7.15-1.28-4.83-2.32-5.87-7.15-7.15,4.83-1.28,5.87-2.32,7.15-7.15,1.28,4.83,2.32,5.87,7.15,7.15Z"/>
  <path class="cls-38" d="M177.44,342.63c-4.83,1.28-5.87,2.32-7.15,7.15-1.28-4.83-2.32-5.87-7.15-7.15,4.83-1.28,5.87-2.32,7.15-7.15,1.28,4.83,2.32,5.87,7.15,7.15Z"/>
  <path class="cls-22" d="M523.86,209.13c-4.83,1.28-5.87,2.32-7.15,7.15-1.28-4.83-2.32-5.87-7.15-7.15,4.83-1.28,5.87-2.32,7.15-7.15,1.28,4.83,2.32,5.87,7.15,7.15Z"/>
  <path class="cls-25" d="M128.49,313.53c0,8.46-6.86,15.32-15.32,15.32h-40.77c-7.38,0-13.54-5.23-14.99-12.18-2.67-3.42-4.27-7.72-4.27-12.4,0-11.12,9.02-20.14,20.14-20.14,10.33,0,18.86,7.8,20,17.84,6.63-2.55,15.17-3.76,19.89-3.76,8.46,0,15.32,6.86,15.32,15.32Z"/>
  <path class="cls-21" d="M65.36,32.22c-4.83,1.28-5.87,2.32-7.15,7.15-1.28-4.83-2.32-5.87-7.15-7.15,4.83-1.28,5.87-2.32,7.15-7.15,1.28,4.83,2.32,5.87,7.15,7.15Z"/>
  <path class="cls-42" d="M465.48,359.88c-19.36,5.77-30.37,26.14-24.6,45.5,5.77,19.35,26.13,30.37,45.5,24.6s30.36-26.14,24.59-45.49c-5.77-19.35-26.13-30.37-45.49-24.61ZM504.83,411.9c-.96,1.51-2.81,2.1-4.42,1.53l-.03.05-6.59-3.44c-2.83,3.37-6.64,5.97-11.18,7.32-12.39,3.69-25.43-3.35-29.12-15.74-3.69-12.39,3.36-25.42,15.75-29.11,12.39-3.69,25.42,3.35,29.11,15.74,1.56,5.23,1.2,10.58-.67,15.3l5.44,2.85.58.29.02.02c.06.03.11.07.15.11,1.62,1.16,2.06,3.39.97,5.09Z"/>
  <path class="cls-22" d="M523.7,414.86c-.08-.07-.16-.14-.26-.19l-.03-.03-.98-.5-9.25-4.84-18.07-9.44c.94-3.43.97-7.17-.12-10.83-3.1-10.41-14.05-16.33-24.44-13.23-10.41,3.1-16.33,14.05-13.23,24.46,3.1,10.41,14.05,16.33,24.46,13.23,2.22-.66,4.22-1.67,5.98-2.97l18.8,9.82,11.21,5.86.05-.09c2.74.97,5.89-.04,7.52-2.6,1.85-2.89,1.1-6.68-1.65-8.65ZM480.27,408.39c-7.58,2.26-15.56-2.05-17.83-9.64-2.26-7.58,2.05-15.56,9.64-17.83s15.56,2.05,17.83,9.64c2.26,7.58-2.05,15.56-9.64,17.83Z"/>
  <path class="cls-34" d="M503.76,419.87l-.02.02c-.03-.05-.06-.1-.11-.14l.13.12Z"/>
  <circle class="cls-13" cx="63.07" cy="237.8" r="32.73"/>
  <line class="cls-19" x1="77.07" y1="237.8" x2="200.75" y2="237.8"/>
  <path class="cls-24" d="M381.32,399.79l-4.24-4.24,2.12-2.12,4.24,4.24-2.12,2.12ZM372.83,391.31l-4.24-4.24,2.12-2.12,4.24,4.24-2.12,2.12ZM364.35,382.82l-4.24-4.24,2.12-2.12,4.24,4.24-2.12,2.12ZM355.86,374.34l-4.24-4.24,2.12-2.12,4.24,4.24-2.12,2.12Z"/>
  <rect class="cls-33" x="62.95" y="151.06" width="17.84" height="28.99" transform="translate(143.75 331.11) rotate(180)"/>
</svg>